<?xml version="1.0" encoding="UTF-8"?>
<svg version="1.1" xmlns="http://www.w3.org/2000/svg" width="1500" height="582">
<path d="M0 0 C12.25496462 3.50141846 20.45328639 17.06615201 26.31567383 27.61816406 C43.12103285 58.8748571 41.81604574 94.11375863 31.9375 127.4375 C26.8025941 143.91752408 19.4656501 159.5778542 11.55859375 174.890625 C10.00225266 177.81831313 10.00225266 177.81831313 9.0625 180.875 C10.60669321 183.23065161 12.15930069 185.33192042 13.9375 187.5 C14.44055664 188.12447021 14.94361328 188.74894043 15.46191406 189.39233398 C21.572686 196.87445888 27.9715618 203.53842374 36.0625 208.875 C36.48917969 208.54628906 36.91585937 208.21757812 37.35546875 207.87890625 C39.57582842 206.18960167 41.81669268 204.5303443 44.0625 202.875 C44.97257813 202.19824219 45.88265625 201.52148438 46.8203125 200.82421875 C77.12283685 179.00795122 114.68087694 168.16503159 152.0625 170.875 C158.28642027 172.38995017 158.28642027 172.38995017 161.0625 174.125 C162.63222805 176.87202409 161.76533629 178.86232153 161.0625 181.875 C153.16065476 197.56110351 140.18571971 209.87869514 126.0625 219.875 C125.31742187 220.42285156 124.57234375 220.97070312 123.8046875 221.53515625 C105.682679 233.7139254 81.10417016 237.29214309 60.03125 233.30297852 C54.32887447 232.1032418 49.0664941 230.12041871 43.734375 227.765625 C40.84827351 226.80359117 39.79191151 226.6016553 37.0625 227.875 C22.97659645 240.26936492 14.369282 258.82447651 6.37109375 275.375 C5.0625 277.875 5.0625 277.875 3.0625 279.875 C0.1875 280.3125 0.1875 280.3125 -2.9375 279.875 C-6.62154772 276.06668876 -8.48135397 271.77640073 -10.5625 267 C-17.3699378 252.04590341 -27.08000448 238.30202539 -38.9375 226.875 C-40.7628125 227.49375 -40.7628125 227.49375 -42.625 228.125 C-46.59607719 229.44241897 -50.57390392 230.73656032 -54.5625 232 C-56.12871094 232.49886719 -56.12871094 232.49886719 -57.7265625 233.0078125 C-79.11593691 238.78450486 -102.50553577 233.4498679 -121.52050781 222.92285156 C-130.04157377 217.9873182 -137.05503997 211.87299293 -143.9375 204.875 C-144.77152344 204.0396875 -145.60554688 203.204375 -146.46484375 202.34375 C-152.55039124 195.93572051 -160.54203259 187.18634701 -161.21875 178.09765625 C-160.9375 174.875 -160.9375 174.875 -159.875 173 C-145.10785637 164.4255295 -113.00455989 172.23840451 -97.30517578 176.22265625 C-74.59646507 182.47937671 -55.17643947 194.21786776 -36.9375 208.875 C-27.17448963 202.96580951 -19.2525496 194.53637774 -11.9375 185.875 C-11.31746094 185.24207031 -10.69742188 184.60914063 -10.05859375 183.95703125 C-8.65935587 181.87515557 -8.65935587 181.87515557 -9.40234375 179.2734375 C-11.08595545 175.54635816 -12.96265252 171.97745076 -14.92358398 168.38989258 C-25.21346974 149.52643003 -32.55911541 129.91260401 -36.9375 108.875 C-37.18242187 107.76382813 -37.42734375 106.65265625 -37.6796875 105.5078125 C-42.72447937 77.79601056 -39.33125648 46.3443728 -23.41772461 22.60473633 C-19.68148057 17.29193145 -15.52127136 12.46692754 -10.9375 7.875 C-9.88175781 6.80185547 -9.88175781 6.80185547 -8.8046875 5.70703125 C-5.94911916 2.98718384 -3.80622195 1.13376824 0 0 Z M-2.63671875 17.45703125 C-19.46704008 36.33741137 -27.18036522 59.92604019 -26.25 85.11328125 C-24.61972727 113.4625595 -15.61073684 143.11052538 0.0625 166.875 C15.05965739 148.41696013 23.32860634 119.11309613 26.0625 95.875 C26.1965625 94.76640625 26.330625 93.6578125 26.46875 92.515625 C27.92950596 77.04489147 26.24566922 61.53648217 21.0625 46.875 C20.71445312 45.86308594 20.36640625 44.85117188 20.0078125 43.80859375 C16.06320421 33.37578493 9.59513215 23.15895427 1.0625 15.875 C-1.0804809 15.64786049 -1.0804809 15.64786049 -2.63671875 17.45703125 Z M-143.9375 184.875 C-132.35050623 203.22556455 -112.64320017 214.72254022 -92.0234375 220.18359375 C-77.84810774 223.35958535 -62.9353734 222.87385491 -49.9375 215.875 C-66.83723971 198.00509004 -93.33768797 189.86409352 -116.9375 185.875 C-117.69804687 185.74222656 -118.45859375 185.60945312 -119.2421875 185.47265625 C-122.97955981 184.94186213 -126.71356136 184.83395742 -130.484375 184.8203125 C-131.30639404 184.81733154 -132.12841309 184.81435059 -132.9753418 184.8112793 C-136.62970096 184.81304622 -140.28331304 184.83952246 -143.9375 184.875 Z M49.0625 214.875 C49.93167591 217.17819171 49.93167591 217.17819171 52.79296875 217.91015625 C53.93378906 218.24917969 55.07460938 218.58820313 56.25 218.9375 C57.37792969 219.27910156 58.50585938 219.62070312 59.66796875 219.97265625 C73.62263193 223.68212368 86.54622009 222.09949318 100.0625 217.875 C101.19816406 217.524375 102.33382812 217.17375 103.50390625 216.8125 C119.71524634 211.19412943 133.4600885 199.14282221 144.0625 185.875 C144.0625 185.545 144.0625 185.215 144.0625 184.875 C109.05383668 183.95774245 77.36074699 194.23780692 49.0625 214.875 Z M0.0625 191.875 C-1.53036938 193.53386396 -3.08613624 195.22841813 -4.625 196.9375 C-5.08269775 197.44265137 -5.54039551 197.94780273 -6.01196289 198.46826172 C-8.37691139 201.08909539 -10.66393119 203.74917028 -12.875 206.5 C-16.90713314 211.30349774 -22.02528911 215.02040035 -26.9375 218.875 C-26.15375 219.74125 -25.37 220.6075 -24.5625 221.5 C-15.45952874 232.16654044 -7.21507364 244.31985271 -0.9375 256.875 C-0.2775 256.875 0.3825 256.875 1.0625 256.875 C1.50078125 256.05 1.9390625 255.225 2.390625 254.375 C8.95934216 242.41245818 16.80811839 231.47151586 25.95654297 221.33569336 C27.2637132 219.91460555 27.2637132 219.91460555 27.0625 217.875 C25.49830927 216.69504955 23.88306709 215.5826207 22.25 214.5 C14.5972463 209.08177129 7.95009324 202.39468306 2.80859375 194.5078125 C2.23238281 193.63898438 1.65617187 192.77015625 1.0625 191.875 C0.7325 191.875 0.4025 191.875 0.0625 191.875 Z " fill="#DBB12C" transform="translate(251.9375,189.125)"/>
<path d="M0 0 C5.97329539 -0.05008568 11.94646391 -0.08603807 17.91992188 -0.10986328 C19.94468317 -0.11981376 21.96943051 -0.13337897 23.99414062 -0.15087891 C66.07537374 -0.5050279 66.07537374 -0.5050279 78 10 C84.73594376 18.61500135 85.66674245 25.13602006 85 36 C83.8228748 43.54136257 78.45911859 49.0017161 73 54 C70.43243763 55.73031377 67.90341047 56.94421437 65 58 C63.9275 58.4125 62.855 58.825 61.75 59.25 C59 60 59 60 55 60 C55 60.66 55 61.32 55 62 C56.03125 62.0825 57.0625 62.165 58.125 62.25 C65.74156519 63.72417391 70.72681694 68.78034584 75 75 C80.61146401 84.94469681 84.67237105 95.82824934 88.85498047 106.42431641 C91.92111536 115.51336499 91.92111536 115.51336499 98.140625 122.12109375 C98.83671875 122.22550781 99.5328125 122.32992187 100.25 122.4375 C102.10625 122.7159375 102.10625 122.7159375 104 123 C104 124.32 104 125.64 104 127 C95.83138371 128.45219845 87.19000133 129.70321217 79.765625 125.296875 C70.06253294 118.16982508 66.43258373 105.52397281 62.02734375 94.78515625 C61.63237701 93.82385803 61.63237701 93.82385803 61.22943115 92.84313965 C59.89566279 89.59319782 58.57133642 86.33993001 57.26318359 83.07958984 C56.77027832 81.86609863 56.27737305 80.65260742 55.76953125 79.40234375 C55.33229736 78.31429443 54.89506348 77.22624512 54.44458008 76.10522461 C52.1747035 71.2259682 49.71412997 66.79901467 45 64 C41.32042159 62.81359388 37.58988174 62.68638122 33.75 62.4375 C32.48671875 62.35371094 31.2234375 62.26992187 29.921875 62.18359375 C28.47554687 62.09271484 28.47554687 62.09271484 27 62 C27.06699405 69.59919512 27.156799 77.19787553 27.26245117 84.79663086 C27.29570111 87.38152954 27.32373277 89.96650084 27.34643555 92.55151367 C27.37997927 96.26773009 27.43229728 99.98328101 27.48828125 103.69921875 C27.49467117 104.85459641 27.5010611 106.00997406 27.50764465 107.20036316 C27.52743881 108.28110611 27.54723297 109.36184906 27.56762695 110.4753418 C27.57873001 111.42354294 27.58983307 112.37174408 27.60127258 113.34867859 C28.08038435 116.53451239 29.11087553 118.40637503 31 121 C31.99 121.66 32.98 122.32 34 123 C34 123.99 34 124.98 34 126 C22.45 126 10.9 126 -1 126 C-1 125.01 -1 124.02 -1 123 C-0.21625 122.505 0.5675 122.01 1.375 121.5 C6.20315696 116.90175527 5.97312171 110.10739448 6.18225098 103.69290161 C6.28910989 98.49457277 6.27851833 93.29681925 6.265625 88.09765625 C6.26697515 86.16914318 6.26891859 84.24063045 6.27142334 82.31211853 C6.27435882 78.28527562 6.2701284 74.25852192 6.26074219 70.23168945 C6.24935638 65.10004339 6.25591173 59.9686068 6.26788712 54.83696842 C6.27515502 50.85870316 6.27279514 46.88048659 6.26763153 42.90221977 C6.26630824 41.01140759 6.26789583 39.12059083 6.27259064 37.22978401 C7.41487225 19.86901215 7.41487225 19.86901215 1.375 4.75 C0.59125 4.1725 -0.1925 3.595 -1 3 C-0.67 2.01 -0.34 1.02 0 0 Z M27 4 C27 21.82 27 39.64 27 58 C44.10951324 59.09615166 44.10951324 59.09615166 58.078125 52.1640625 C64.15282978 45.71894889 65.47909462 39.89891145 65.31640625 31.16796875 C64.53390758 23.33332157 61.69933937 16.44027849 56 11 C46.71196744 3.84921364 38.94471849 4 27 4 Z " fill="#FFFFFF" transform="translate(979,163)"/>
<path d="M0 0 C2.43106897 2.141656 4.71196404 4.33441356 6.9375 6.6875 C7.44539062 7.22246094 7.95328125 7.75742188 8.4765625 8.30859375 C9.7083795 9.70288968 10.82629051 11.1953044 11.9375 12.6875 C12.34355469 13.22117188 12.74960937 13.75484375 13.16796875 14.3046875 C22.9151985 28.28071539 24.83456499 47.39627707 22.63720703 63.94970703 C20.49382865 75.96081723 15.4418678 87.74766758 6.9375 96.6875 C6.2775 96.6875 5.6175 96.6875 4.9375 96.6875 C4.9375 97.3475 4.9375 98.0075 4.9375 98.6875 C-8.91950289 111.80966183 -27.50500344 116.40113104 -46.13671875 115.99609375 C-64.35146802 115.14055788 -79.82768852 106.99868786 -92.0625 93.6875 C-94.7432182 90.17450106 -96.97855405 86.5802642 -99.0625 82.6875 C-99.45953125 81.98496094 -99.8565625 81.28242188 -100.265625 80.55859375 C-108.37545732 64.61127422 -107.83973448 44.37824598 -102.73828125 27.67724609 C-97.94986948 13.57841808 -87.12480811 0.85070122 -74.0625 -6.3125 C-49.87256021 -17.48168208 -21.65069312 -16.34848256 0 0 Z M-73.6875 -0.625 C-82.71983746 8.16964437 -86.15307415 18.76424909 -86.58569336 31.13354492 C-86.73953344 43.33086526 -85.05745542 54.18439493 -81.0625 65.6875 C-80.67835938 66.81542969 -80.29421875 67.94335938 -79.8984375 69.10546875 C-74.28608987 83.86174331 -63.71510177 97.8363054 -49.734375 105.5390625 C-37.95580809 110.60177986 -26.080513 111.13685659 -14.0625 106.6875 C-5.74140295 101.99973693 -0.2000189 94.82216299 2.8125 85.8125 C7.95693028 63.91804971 1.71633463 38.2994308 -9.44140625 19.171875 C-17.21853989 7.25318344 -27.01910783 -3.40561214 -41.1640625 -7.12890625 C-53.39659323 -9.44987568 -63.35652227 -7.26634283 -73.6875 -0.625 Z " fill="#FFFFFF" transform="translate(745.0625,175.3125)"/>
<path d="M0 0 C5.06518378 7.59777567 2.54238071 21.4560662 0.87011719 30.07763672 C-4.3739084 53.7481546 -16.59306374 72.53552641 -33 90 C-33.58652344 90.66257812 -34.17304688 91.32515625 -34.77734375 92.0078125 C-53.56964994 112.32159644 -81.04148818 122.24157711 -107.98046875 124.21875 C-113.39141638 124.41521406 -117.31032747 123.79384747 -122 121 C-127.74556528 107.14304844 -121.29563872 86.60322061 -116.3125 73.375 C-110.88743235 60.64381109 -104.17504762 49.40306547 -95 39 C-94.50113281 38.36964844 -94.00226563 37.73929687 -93.48828125 37.08984375 C-89.07227019 31.53503327 -83.59462036 27.31605182 -78 23 C-77.484375 22.59346191 -76.96875 22.18692383 -76.4375 21.76806641 C-57.54615205 6.96868628 -24.35137992 -10.00814955 0 0 Z M-65 30 C-65.95261719 30.73347656 -66.90523438 31.46695313 -67.88671875 32.22265625 C-89.25298194 49.21655999 -105.86531701 72.58858316 -110 100 C-110.20264358 103.68638848 -110.2030793 107.31448672 -110 111 C-86.71546622 112.20437244 -64.00967304 100.59296497 -46.92626953 85.5769043 C-25.97890945 66.6107282 -11.59461601 41.95740693 -10.078125 13.31640625 C-10.05234375 12.55199219 -10.0265625 11.78757813 -10 11 C-29.21253882 9.82372211 -50.00327092 18.38467103 -65 30 Z " fill="#DBB12C" transform="translate(419,233)"/>
<path d="M0 0 C1.62047241 0.01921509 1.62047241 0.01921509 3.27368164 0.03881836 C12.24217196 0.26398272 20.25726908 1.49584201 28.75 4.5 C29.43610352 4.73605957 30.12220703 4.97211914 30.82910156 5.21533203 C60.2759324 15.60006023 85.15247402 39.00599744 99.0378418 66.79589844 C104.6093549 78.44071926 108.61184416 90.08635017 110.125 102.9375 C110.25237549 104.01922485 110.25237549 104.01922485 110.38232422 105.12280273 C110.95273168 111.0710446 111.16827368 117.51416067 108.5625 123 C103.35159928 127.31246956 93.15851105 126.05495167 86.75 125.5 C64.00301441 122.35981111 45.3209829 112.88269971 27.75 98.5 C26.9765625 97.86964844 26.203125 97.23929687 25.40625 96.58984375 C20.69660367 92.6138154 16.6772791 88.24041618 12.75 83.5 C12.12351562 82.77296875 11.49703125 82.0459375 10.8515625 81.296875 C-5.19176381 62.1463432 -15.26976334 38.92930539 -15.5625 13.8125 C-15.59150391 12.97138672 -15.62050781 12.13027344 -15.65039062 11.26367188 C-15.68748569 7.6654502 -15.59911257 5.17647035 -13.93359375 1.94921875 C-9.48388198 -0.45375515 -4.97143099 -0.08822314 0 0 Z M-2.25 12.5 C-3.94128176 34.67458312 7.32004171 57.21726835 21.4140625 73.6484375 C39.07397718 93.67908377 62.58886283 110.75375667 90.046875 112.73828125 C92.28264121 112.74775484 94.51870664 112.64166942 96.75 112.5 C98.9405184 88.9884358 87.92929416 68.46908517 73.48046875 50.88745117 C55.90258982 30.12137341 32.83310949 16.2411143 5.75 12.5 C3.01911404 12.32318005 0.48468799 12.33257012 -2.25 12.5 Z " fill="#DBB12C" transform="translate(98.25,231.5)"/>
<path d="M0 0 C28.71 0 57.42 0 87 0 C87.99 12.87 87.99 12.87 89 26 C87.68 26.33 86.36 26.66 85 27 C84.64808594 26.27554688 84.29617188 25.55109375 83.93359375 24.8046875 C78.90614439 14.95981277 73.52232497 9.62518263 63 6 C58.89574137 5.00800367 54.94574566 4.80502148 50.73046875 4.68359375 C48.86104614 4.62643188 48.86104614 4.62643188 46.95385742 4.56811523 C45.38095947 4.52501221 43.80806152 4.48190918 42.1875 4.4375 C37.175625 4.293125 32.16375 4.14875 27 4 C27 21.49 27 38.98 27 57 C33.5896875 56.8453125 33.5896875 56.8453125 40.3125 56.6875 C41.67415283 56.66260498 43.03580566 56.63770996 44.4387207 56.61206055 C53.0019624 56.3564878 62.48551288 56.04645875 69.5625 50.625 C71.91284521 48.093859 73.05876153 46.29433466 74 43 C75.32 43 76.64 43 78 43 C78 53.23 78 63.46 78 74 C76.68 74 75.36 74 74 74 C72.5479012 72.12474358 71.60894224 70.15578881 70.5390625 68.04296875 C67.80301939 64.41111457 64.20454083 63.26767574 59.87109375 62.3046875 C52.23463029 61.34904361 44.65897191 60.77858907 36.97265625 60.4453125 C35.52735535 60.37969116 35.52735535 60.37969116 34.05285645 60.31274414 C31.70199301 60.20631745 29.35105409 60.10211279 27 60 C27.0844324 67.36296805 27.17932683 74.72572318 27.28752708 82.08838272 C27.33744294 85.50728559 27.38377312 88.92615828 27.421875 92.34521484 C27.46585076 96.27719477 27.52548319 100.2088625 27.5859375 104.140625 C27.59748871 105.36678528 27.60903992 106.59294556 27.62094116 107.85626221 C27.64081085 108.99714294 27.66068054 110.13802368 27.68115234 111.31347656 C27.69447601 112.31719299 27.70779968 113.32090942 27.7215271 114.3550415 C28.00933879 117.08870063 28.45182418 118.73643171 30 121 C41.80906231 124.9363541 62.20702829 123.40753189 73.5 118.125 C81.39119783 113.59211068 86.03668504 107.62055263 89 99 C90.32 99 91.64 99 93 99 C92.67 107.91 92.34 116.82 92 126 C61.64 126 31.28 126 0 126 C1.07933889 121.68264443 2.00573587 120.99426413 5 118 C5.92405875 115.21347857 6.12856584 112.65429442 6.14044189 109.73173523 C6.14615204 108.88652313 6.15186218 108.04131104 6.15774536 107.17048645 C6.15886322 106.25144028 6.15998108 105.3323941 6.16113281 104.38549805 C6.16609772 103.41104736 6.17106262 102.43659668 6.17617798 101.43261719 C6.19078272 98.20897719 6.19759875 94.9853864 6.203125 91.76171875 C6.20887775 89.51976012 6.21463547 87.2778015 6.22039795 85.0358429 C6.23090307 80.33419567 6.23674897 75.63256552 6.24023438 70.9309082 C6.24571864 64.91182815 6.26974747 58.89297436 6.29820633 52.87396526 C6.31684657 48.2422266 6.32203905 43.6105423 6.32357025 38.9787693 C6.32659406 36.76004614 6.3346134 34.54132386 6.34775543 32.32263756 C6.36484488 29.21581261 6.36292844 26.10953867 6.35644531 23.00268555 C6.37026749 21.63322533 6.37026749 21.63322533 6.3843689 20.23609924 C6.34850857 14.73922316 5.68594541 10.83862487 3 6 C2.01 5.34 1.02 4.68 0 4 C0 2.68 0 1.36 0 0 Z " fill="#FFFFFF" transform="translate(1339,163)"/>
<path d="M0 0 C28.71 0 57.42 0 87 0 C87.99 12.87 87.99 12.87 89 26 C87.68 26.33 86.36 26.66 85 27 C84.54560547 26.12988281 84.54560547 26.12988281 84.08203125 25.2421875 C78.61673935 15.05152014 73.8497068 10.42933509 63 6 C58.90481892 4.98012904 54.94165959 4.80490377 50.73046875 4.68359375 C48.86104614 4.62643188 48.86104614 4.62643188 46.95385742 4.56811523 C45.38095947 4.52501221 43.80806152 4.48190918 42.1875 4.4375 C37.175625 4.293125 32.16375 4.14875 27 4 C27 21.49 27 38.98 27 57 C31.2075 56.896875 35.415 56.79375 39.75 56.6875 C41.0503418 56.66260498 42.35068359 56.63770996 43.69042969 56.61206055 C52.40407135 56.34148736 61.41551055 55.71326927 69.0625 51.1875 C71.31165003 48.64813706 72.65900258 46.10546771 74 43 C74.99 43 75.98 43 77 43 C77 53.23 77 63.46 77 74 C75.02 73.505 75.02 73.505 73 73 C72.46375 71.906875 71.9275 70.81375 71.375 69.6875 C69.12515379 65.51081057 66.53268817 64.45901858 62.18701172 62.84106445 C55.71218712 61.13233374 49.03419951 61.03393655 42.375 60.75 C40.87882453 60.67345601 39.38272849 60.59534249 37.88671875 60.515625 C34.25854844 60.32566522 30.62976806 60.15690089 27 60 C27.08436121 67.51061652 27.17922804 75.02103785 27.28752708 82.53134632 C27.33748374 86.01865977 27.3838136 89.50594303 27.421875 92.9934082 C27.46578584 97.00231077 27.5254346 101.01084452 27.5859375 105.01953125 C27.59748871 106.27272659 27.60903992 107.52592194 27.62094116 108.8170929 C27.64081085 109.97806992 27.66068054 111.13904694 27.68115234 112.33520508 C27.69447601 113.35890701 27.70779968 114.38260895 27.7215271 115.43733215 C27.82660412 118.23993832 27.82660412 118.23993832 30 121 C41.81226425 124.93742142 61.97227527 123.33487214 73.375 118.3125 C81.33522967 113.73746273 85.39437708 107.2580396 89 99 C89.99 99 90.98 99 92 99 C92.02913821 102.5624827 92.04684529 106.12493454 92.0625 109.6875 C92.07087891 110.69490234 92.07925781 111.70230469 92.08789062 112.74023438 C92.09111328 113.71669922 92.09433594 114.69316406 92.09765625 115.69921875 C92.10289307 116.59471436 92.10812988 117.49020996 92.11352539 118.4128418 C92 121 92 121 91 126 C60.97 126 30.94 126 0 126 C1 122 1 122 2.4375 120.6875 C6.83736584 115.9356449 6.29197548 108.50922526 6.2746582 102.44384766 C6.27976913 101.51118576 6.28488007 100.57852386 6.29014587 99.61759949 C6.30398937 96.54968764 6.30308897 93.48200178 6.30078125 90.4140625 C6.30467117 88.27086301 6.30900645 86.12766429 6.31376648 83.98446655 C6.32121752 79.49743142 6.32094557 75.01047499 6.31567383 70.5234375 C6.30988202 64.78822805 6.32680885 59.05334184 6.3500185 53.31818581 C6.3647879 48.89309828 6.36562315 44.46808801 6.36250877 40.04298019 C6.36302041 37.92918635 6.36822848 35.81538801 6.37832069 33.70161819 C6.39072933 30.73918217 6.3838667 27.77736831 6.37231445 24.81494141 C6.37995819 23.95127457 6.38760193 23.08760773 6.39547729 22.19776917 C6.34672751 16.50965242 5.63585235 11.12176017 3 6 C2.01 5.34 1.02 4.68 0 4 C0 2.68 0 1.36 0 0 Z " fill="#FFFFFF" transform="translate(1161,163)"/>
<path d="M0 0 C1 1 1 1 1.11352539 3.31665039 C1.10567017 4.81699829 1.10567017 4.81699829 1.09765625 6.34765625 C1.09282227 7.96704102 1.09282227 7.96704102 1.08789062 9.61914062 C1.07532227 11.32360352 1.07532227 11.32360352 1.0625 13.0625 C1.05798828 14.20267578 1.05347656 15.34285156 1.04882812 16.51757812 C1.03699747 19.34510351 1.0205141 22.1725264 1 25 C0.01 25 -0.98 25 -2 25 C-2.37511719 24.27554688 -2.75023437 23.55109375 -3.13671875 22.8046875 C-9.23902902 11.27639354 -16.26999104 3.39397081 -28.9375 -0.9375 C-37.60165464 -3.15167285 -46.92735571 -3.121542 -55 1 C-60.23760123 4.36921716 -63.24377068 7.90485119 -65 14 C-65.93913074 20.5034804 -64.81671692 25.63380994 -61 31 C-53.83078623 39.28753124 -42.7078331 42.81765681 -32.6875 46.375 C-18.81344878 51.32815052 -3.48312741 57.47280815 4 71 C7.47776515 79.86513953 7.34193708 89.64872012 3.875 98.5 C-1.47845337 109.60841574 -10.04298831 115.86035528 -21.4375 120.4375 C-38.88299269 125.65083611 -59.22237471 121.8905121 -75.125 113.75 C-77.39375 112.5125 -79.6625 111.275 -82 110 C-82.33 100.76 -82.66 91.52 -83 82 C-81.02 81.505 -81.02 81.505 -79 81 C-78.79246094 81.52207031 -78.58492188 82.04414063 -78.37109375 82.58203125 C-72.51655711 96.56922967 -64.1430361 107.74246964 -50 114 C-47.35146917 114.97974108 -44.7880212 115.56391233 -42 116 C-40.60587891 116.21849609 -40.60587891 116.21849609 -39.18359375 116.44140625 C-30.92376198 117.44355698 -24.29307642 116.61317695 -17.125 112.25 C-12.59167246 107.45000613 -10.382304 102.87693956 -9.890625 96.33984375 C-10.14982452 90.79482536 -12.49510105 85.8675984 -15 81 C-15.66 81 -16.32 81 -17 81 C-17 80.34 -17 79.68 -17 79 C-17.73210693 78.72736328 -18.46421387 78.45472656 -19.21850586 78.17382812 C-21.86779872 77.05579073 -24.08967185 75.76989109 -26.50390625 74.21875 C-32.38441734 70.63012483 -38.56288235 68.07657813 -44.9375 65.5 C-72.54782278 54.30095616 -72.54782278 54.30095616 -78.375 42.8125 C-82.03157068 33.56074574 -81.81069445 23.84445261 -78.06640625 14.7265625 C-73.39577438 5.25600791 -65.84795053 -0.3804807 -56.08984375 -4.03515625 C-38.08393704 -9.65773394 -16.97091952 -8.3723203 0 0 Z " fill="#FFFFFF" transform="translate(548,169)"/>
<path d="M0 0 C21.96352993 11.26938262 36.24863665 30.06899658 44.72265625 52.8984375 C51.29137392 73.55846372 50.92003881 95.40375894 43.06640625 115.6328125 C41.66107958 118.04126796 40.29588131 119.19986838 37.90625 120.62109375 C26.68318466 121.03676284 15.550822 113.05456852 7.42578125 105.98828125 C-9.48221525 90.10262872 -22.68010164 67.58208663 -24.27075195 43.99658203 C-25.01611234 9.8762999 -25.01611234 9.8762999 -15.09375 -2.37890625 C-9.73937439 -4.16369812 -4.96582126 -2.21330165 0 0 Z M-7.09375 11.62109375 C-7.568125 12.67296875 -8.0425 13.72484375 -8.53125 14.80859375 C-8.79808594 15.40027344 -9.06492188 15.99195313 -9.33984375 16.6015625 C-14.92615784 31.56593755 -11.61911562 51.65888704 -5.2578125 65.84375 C-3.36181427 69.86049162 -1.27733538 73.75446794 0.90625 77.62109375 C1.37804687 78.47316406 1.84984375 79.32523437 2.3359375 80.203125 C8.54044448 90.3909989 19.45949132 101.9520609 31.1875 105.265625 C31.7546875 105.38292969 32.321875 105.50023437 32.90625 105.62109375 C39.29760807 86.90354511 36.73645448 65.70817122 28.63671875 47.96875 C25.82294763 42.52540497 22.5215069 37.56034416 18.90625 32.62109375 C18.27847656 31.73421875 17.65070313 30.84734375 17.00390625 29.93359375 C11.07919834 21.98551933 3.53142677 16.42591965 -5.09375 11.62109375 C-5.75375 11.62109375 -6.41375 11.62109375 -7.09375 11.62109375 Z " fill="#DBB12C" transform="translate(156.09375,117.37890625)"/>
<path d="M0 0 C3.39919843 3.11981225 4.34516084 7.56936824 5.625 11.875 C5.8415625 12.56980469 6.058125 13.26460937 6.28125 13.98046875 C13.81450306 38.67279823 7.5455121 63.6617115 -3.9375 85.9375 C-11.42439319 99.02965978 -21.92661233 109.5769748 -35 117 C-35.87140625 117.49757813 -36.7428125 117.99515625 -37.640625 118.5078125 C-42.78525757 121.26950176 -47.10638398 123.10161407 -53 123 C-58.00007763 119.944397 -60.06086944 113.17859574 -61.66015625 107.765625 C-68.17722006 80.53878062 -61.04508022 55.10247735 -47.50390625 31.37890625 C-38.24282577 16.66087184 -25.12534557 5.81821215 -8.9375 -0.35546875 C-5.51508571 -1.10639742 -3.34877456 -1.02788775 0 0 Z M-27.1875 26.5625 C-42.25245925 42.0805041 -51.79787547 64.2716128 -52 86 C-51.43751649 93.71852378 -50.69506285 101.11374651 -47 108 C-33.41522764 102.90274685 -22.9055605 92.54075846 -16 80 C-15.08734375 78.35644531 -15.08734375 78.35644531 -14.15625 76.6796875 C-7.45181288 63.98102905 -3.79972194 51.12957207 -3.8125 36.75 C-3.81258057 35.90824219 -3.81266113 35.06648438 -3.81274414 34.19921875 C-3.87767747 27.12353641 -4.76011357 20.71965928 -7 14 C-14.22210671 14 -22.23053829 21.67437386 -27.1875 26.5625 Z " fill="#DBB12C" transform="translate(363,115)"/>
<path d="M0 0 C7.87425783 1.60154397 12.6942839 8.39595673 16.95703125 14.82421875 C22.78534452 24.67840982 26.75044527 34.42210391 28.6875 45.75 C28.81769531 46.47574219 28.94789063 47.20148438 29.08203125 47.94921875 C32.17808452 68.30060888 26.47736487 90.03065406 14.6875 106.75 C6.77293769 116.06416409 6.77293769 116.06416409 2.0625 117.61328125 C-2.26972262 117.86266907 -4.93341514 114.92939836 -8.0390625 112.2734375 C-20.66210767 100.54012239 -26.927178 82.15121497 -27.6484375 65.2421875 C-28.01040179 42.89679392 -23.5674704 22.85063348 -8.3125 5.75 C-7.4875 4.739375 -6.6625 3.72875 -5.8125 2.6875 C-3.3125 0.75 -3.3125 0.75 0 0 Z M0.6875 15.75 C-10.44874953 26.88624953 -14.53257662 43.31135432 -14.6875 58.6875 C-14.528897 74.45528151 -10.77280414 91.28969586 0.6875 102.75 C4.28656541 99.53741142 6.52842679 95.91323173 8.75 91.6875 C9.10070557 91.02282715 9.45141113 90.3581543 9.81274414 89.67333984 C14.04332996 81.41102064 16.15185579 73.00660146 16.6875 63.75 C16.72875 63.06808594 16.77 62.38617188 16.8125 61.68359375 C17.30525555 44.9607021 11.95869715 30.5050003 2.6875 16.75 C2.0275 16.42 1.3675 16.09 0.6875 15.75 Z " fill="#DBB12C" transform="translate(251.3125,58.25)"/>
<path d="M0 0 C11.22 0 22.44 0 34 0 C34 1.32 34 2.64 34 4 C33.38125 4.04125 32.7625 4.0825 32.125 4.125 C29.7504703 4.82104812 29.7504703 4.82104812 28.88534546 7.41564941 C27.73411305 12.07645217 27.7049129 16.44120155 27.70947266 21.22460938 C27.70275543 22.23997269 27.69603821 23.255336 27.68911743 24.3014679 C27.67016041 27.64894538 27.66621476 30.99622222 27.6640625 34.34375 C27.6576344 36.67492759 27.65090603 39.00610437 27.64389038 41.33728027 C27.63192438 46.21950146 27.62820901 51.10165191 27.62939453 55.98388672 C27.629598 62.23850619 27.60226317 68.49267273 27.56785011 74.74718475 C27.54561335 79.55989669 27.54155596 84.37249891 27.54261398 89.18525696 C27.54025443 91.49133367 27.53141105 93.79741325 27.51594925 96.10343933 C27.49634952 99.32774654 27.50210362 102.55106748 27.51416016 105.77539062 C27.49730164 107.20163506 27.49730164 107.20163506 27.48010254 108.6566925 C27.53464723 114.39832284 28.20561766 117.60995541 32 122 C32.99 122.495 32.99 122.495 34 123 C34 123.99 34 124.98 34 126 C22.45 126 10.9 126 -1 126 C-1 125.01 -1 124.02 -1 123 C-0.21625 122.505 0.5675 122.01 1.375 121.5 C6.20315696 116.90175527 5.97312171 110.10739448 6.18225098 103.69290161 C6.28910989 98.49457277 6.27851833 93.29681925 6.265625 88.09765625 C6.26697515 86.16914318 6.26891859 84.24063045 6.27142334 82.31211853 C6.27435882 78.28527562 6.2701284 74.25852192 6.26074219 70.23168945 C6.24935638 65.10004339 6.25591173 59.9686068 6.26788712 54.83696842 C6.27515502 50.85870316 6.27279514 46.88048659 6.26763153 42.90221977 C6.26630824 41.01140759 6.26789583 39.12059083 6.27259064 37.22978401 C7.41487225 19.86901215 7.41487225 19.86901215 1.375 4.75 C0.59125 4.1725 -0.1925 3.595 -1 3 C-0.67 2.01 -0.34 1.02 0 0 Z " fill="#FFFFFF" transform="translate(857,163)"/>
<path d="M0 0 C2.5625 1.9375 2.5625 1.9375 3.4375 5.625 C3.47875 6.718125 3.52 7.81125 3.5625 8.9375 C-3.24247683 12.65387111 -10.21755882 14.94659342 -17.625 17.1875 C-18.78708984 17.55101562 -19.94917969 17.91453125 -21.14648438 18.2890625 C-22.26732422 18.63195312 -23.38816406 18.97484375 -24.54296875 19.328125 C-25.55512451 19.63782227 -26.56728027 19.94751953 -27.61010742 20.26660156 C-30.33761326 20.91379835 -32.6478719 21.06913747 -35.4375 20.9375 C-33.83283972 16.46584669 -30.35236224 14.00302536 -26.8125 11.0625 C-26.17876465 10.53237305 -25.5450293 10.00224609 -24.89208984 9.45605469 C-23.63868881 8.41214198 -22.38241848 7.37166295 -21.12304688 6.33496094 C-19.73584554 5.18485369 -18.37228316 4.00629431 -17.015625 2.8203125 C-11.28430994 -1.97106689 -7.24381646 -2.23899781 0 0 Z " fill="#FFFFFF" transform="translate(1217.4375,134.0625)"/>
<path d="M0 0 C2.7578125 -0.3359375 2.7578125 -0.3359375 6 0 C8.1171875 2.3359375 8.1171875 2.3359375 9.875 5.375 C10.47054687 6.37273437 11.06609375 7.37046875 11.6796875 8.3984375 C13 11 13 11 13 13 C15.71556171 10.58883754 17.13654702 8.0120466 18.8125 4.8125 C20.37109375 2.12109375 20.37109375 2.12109375 22 0 C25.375 -0.625 25.375 -0.625 28 0 C27.67 0.99 27.34 1.98 27 3 C26.91821886 4.70016844 26.89250499 6.40336297 26.90234375 8.10546875 C26.90717773 9.57983398 26.90717773 9.57983398 26.91210938 11.08398438 C26.92048828 12.10814453 26.92886719 13.13230469 26.9375 14.1875 C26.94201172 15.22326172 26.94652344 16.25902344 26.95117188 17.32617188 C26.9629599 19.88417266 26.97941485 22.44205733 27 25 C24.36 25 21.72 25 19 25 C19.33 24.34 19.66 23.68 20 23 C20.0716735 20.44842345 20.09308442 17.92527029 20.0625 15.375 C20.05798828 14.66859375 20.05347656 13.9621875 20.04882812 13.234375 C20.03703875 11.48954725 20.01910324 9.744763 20 8 C18.02 11.63 16.04 15.26 14 19 C13.01 19 12.02 19 11 19 C8.67956426 15.83833573 6.92642791 12.42476073 5 9 C5 13.95 5 18.9 5 24 C5.66 24.33 6.32 24.66 7 25 C5.02 25 3.04 25 1 25 C1.00523682 24.34926514 1.01047363 23.69853027 1.01586914 23.02807617 C1.03664938 20.08122726 1.0496635 17.13439377 1.0625 14.1875 C1.07087891 13.16333984 1.07925781 12.13917969 1.08789062 11.08398438 C1.09111328 10.10107422 1.09433594 9.11816406 1.09765625 8.10546875 C1.10289307 7.19949951 1.10812988 6.29353027 1.11352539 5.36010742 C1.09920981 2.84715961 1.09920981 2.84715961 0 0 Z " fill="#DCB22A" transform="translate(811,326)"/>
<path d="M0 0 C1.89551022 -0.05441656 3.7914792 -0.09298035 5.6875 -0.125 C6.74324219 -0.14820313 7.79898437 -0.17140625 8.88671875 -0.1953125 C12.02251859 0.00141271 14.17645373 0.66942346 17 2 C17.6875 5.25 17.6875 5.25 18 9 C16.51953125 11.234375 16.51953125 11.234375 15 13 C15.78668518 14.62741744 16.5795241 16.25186131 17.375 17.875 C17.81585937 18.77992188 18.25671875 19.68484375 18.7109375 20.6171875 C19.90502699 23.09534472 19.90502699 23.09534472 22 25 C19.6875 25.6875 19.6875 25.6875 17 26 C13.5968387 23.37887829 12.61855778 19.86263509 11.16015625 15.9609375 C10.16468976 13.80476403 10.16468976 13.80476403 7.87109375 13.2265625 C6.94490234 13.11441406 6.94490234 13.11441406 6 13 C6.14168137 14.43791516 6.28851043 15.8753237 6.4375 17.3125 C6.51871094 18.11300781 6.59992188 18.91351563 6.68359375 19.73828125 C6.95265693 22.16087179 6.95265693 22.16087179 8 25 C5.36 25 2.72 25 0 25 C0.33 24.34 0.66 23.68 1 23 C1.09539873 21.51411977 1.13073484 20.02409435 1.1328125 18.53515625 C1.13410156 17.65279297 1.13539062 16.77042969 1.13671875 15.86132812 C1.13285156 14.93771484 1.12898438 14.01410156 1.125 13.0625 C1.12886719 12.14275391 1.13273437 11.22300781 1.13671875 10.27539062 C1.13542969 9.39173828 1.13414063 8.50808594 1.1328125 7.59765625 C1.13168457 6.78820557 1.13055664 5.97875488 1.12939453 5.14477539 C1.08150607 2.81364562 1.08150607 2.81364562 0 0 Z M6 2 C6 5.3 6 8.6 6 12 C7.98 11.34 9.96 10.68 12 10 C12.76956136 7.65466049 12.76956136 7.65466049 13 5 C11.91666667 3.08333333 11.91666667 3.08333333 10 2 C8.68 2 7.36 2 6 2 Z " fill="#DBB22B" transform="translate(1293,326)"/>
<path d="M0 0 C5.94 0 11.88 0 18 0 C18 1.98 18 3.96 18 6 C17.34 6 16.68 6 16 6 C15.608125 5.525625 15.21625 5.05125 14.8125 4.5625 C12.13387641 2.25334174 9.43923968 2.32445657 6 2 C6 4.97 6 7.94 6 11 C9.46941546 10.54177532 12.67395049 10.10868317 16 9 C16 10.98 16 12.96 16 15 C12.7 14.34 9.4 13.68 6 13 C6 16.63 6 20.26 6 24 C10.56126734 23.21319774 10.56126734 23.21319774 15 22 C15.66 21.01 16.32 20.02 17 19 C17.66 19 18.32 19 19 19 C19 20.98 19 22.96 19 25 C12.73 25 6.46 25 0 25 C0 16.75 0 8.5 0 0 Z " fill="#DBB12B" transform="translate(869,326)"/>
<path d="M0 0 C5.94 0 11.88 0 18 0 C18 1.98 18 3.96 18 6 C17.34 6 16.68 6 16 6 C15.608125 5.525625 15.21625 5.05125 14.8125 4.5625 C12.13387641 2.25334174 9.43923968 2.32445657 6 2 C6 4.97 6 7.94 6 11 C9.46941546 10.54177532 12.67395049 10.10868317 16 9 C16 10.98 16 12.96 16 15 C12.7 14.34 9.4 13.68 6 13 C6 16.63 6 20.26 6 24 C10.56126734 23.21319774 10.56126734 23.21319774 15 22 C15.66 21.01 16.32 20.02 17 19 C17.66 19 18.32 19 19 19 C19 20.98 19 22.96 19 25 C12.73 25 6.46 25 0 25 C0 16.75 0 8.5 0 0 Z " fill="#DBB12B" transform="translate(729,326)"/>
<path d="M0 0 C0 1.98 0 3.96 0 6 C-0.70125 5.34 -1.4025 4.68 -2.125 4 C-5.43460229 1.69766797 -7.06225823 1.63369844 -11 2 C-11.33 3.32 -11.66 4.64 -12 6 C-10.84371094 6.61488281 -10.84371094 6.61488281 -9.6640625 7.2421875 C-8.66117188 7.78101563 -7.65828125 8.31984375 -6.625 8.875 C-5.62726563 9.40867187 -4.62953125 9.94234375 -3.6015625 10.4921875 C-1 12 -1 12 1 14 C1.375 16.875 1.375 16.875 1 20 C-0.8670991 22.30275556 -2.35647741 23.67823871 -5 25 C-9.55547083 25.25785684 -12.8780636 24.99851462 -17 23 C-17 20.69 -17 18.38 -17 16 C-16.34 16 -15.68 16 -15 16 C-14.608125 16.804375 -14.21625 17.60875 -13.8125 18.4375 C-12.1474527 21.40122736 -12.1474527 21.40122736 -8.3125 21.8125 C-6.6728125 21.9053125 -6.6728125 21.9053125 -5 22 C-4.67 20.35 -4.34 18.7 -4 17 C-4.68707031 16.68546875 -5.37414063 16.3709375 -6.08203125 16.046875 C-6.98308594 15.61890625 -7.88414062 15.1909375 -8.8125 14.75 C-9.70582031 14.33234375 -10.59914063 13.9146875 -11.51953125 13.484375 C-14.15380411 11.90795975 -15.46271009 10.6404614 -17 8 C-17 4.9375 -17 4.9375 -16 2 C-11.43479665 -2.15018487 -5.63978525 -1.87992842 0 0 Z " fill="#DCB22A" transform="translate(1030,327)"/>
<path d="M0 0 C0 1.98 0 3.96 0 6 C-0.70125 5.34 -1.4025 4.68 -2.125 4 C-5.43460229 1.69766797 -7.06225823 1.63369844 -11 2 C-11.33 3.32 -11.66 4.64 -12 6 C-10.84371094 6.61488281 -10.84371094 6.61488281 -9.6640625 7.2421875 C-8.66117188 7.78101563 -7.65828125 8.31984375 -6.625 8.875 C-5.62726562 9.40867187 -4.62953125 9.94234375 -3.6015625 10.4921875 C-1 12 -1 12 1 14 C1.375 16.875 1.375 16.875 1 20 C-0.8670991 22.30275556 -2.35647741 23.67823871 -5 25 C-9.55547083 25.25785684 -12.8780636 24.99851462 -17 23 C-17 20.69 -17 18.38 -17 16 C-16.34 16 -15.68 16 -15 16 C-14.608125 16.804375 -14.21625 17.60875 -13.8125 18.4375 C-12.1474527 21.40122736 -12.1474527 21.40122736 -8.3125 21.8125 C-6.6728125 21.9053125 -6.6728125 21.9053125 -5 22 C-4.67 20.35 -4.34 18.7 -4 17 C-4.68707031 16.68546875 -5.37414062 16.3709375 -6.08203125 16.046875 C-6.98308594 15.61890625 -7.88414062 15.1909375 -8.8125 14.75 C-9.70582031 14.33234375 -10.59914063 13.9146875 -11.51953125 13.484375 C-14.15380411 11.90795975 -15.46271009 10.6404614 -17 8 C-17 4.9375 -17 4.9375 -16 2 C-11.43479665 -2.15018487 -5.63978525 -1.87992842 0 0 Z " fill="#DCB22A" transform="translate(651,327)"/>
<path d="M0 0 C2.64 0 5.28 0 8 0 C8.99 2.97 9.98 5.94 11 9 C11.66 9 12.32 9 13 9 C14.44524884 4.57394994 14.44524884 4.57394994 15 0 C16.98 0 18.96 0 21 0 C21 0.66 21 1.32 21 2 C20.21625 2.763125 19.4325 3.52625 18.625 4.3125 C15.9973462 7.00271699 14.90057602 8.40299344 14 12 C14.98332233 14.65936715 14.98332233 14.65936715 16.75 17.125 C17.30171875 17.97320312 17.8534375 18.82140625 18.421875 19.6953125 C18.94265625 20.45585937 19.4634375 21.21640625 20 22 C20.66 22.99 21.32 23.98 22 25 C19.36 25 16.72 25 14 25 C13.731875 24.2575 13.46375 23.515 13.1875 22.75 C12.05770579 20.13363446 10.79106798 18.19812889 9 16 C5.86293483 20.09947304 5.86293483 20.09947304 5 25 C3.35 25 1.7 25 0 25 C0.42152344 24.39671875 0.84304688 23.7934375 1.27734375 23.171875 C1.82519531 22.37265625 2.37304688 21.5734375 2.9375 20.75 C3.48277344 19.96109375 4.02804687 19.1721875 4.58984375 18.359375 C6.38993105 15.36139117 6.38993105 15.36139117 7 12 C5.84990761 9.66489979 5.84990761 9.66489979 4.125 7.4375 C2.25550846 4.85934074 1.01465361 3.04396084 0 0 Z " fill="#DCB22B" transform="translate(1192,326)"/>
<path d="M0 0 C5.94 0 11.88 0 18 0 C18 1.98 18 3.96 18 6 C17.505 5.525625 17.01 5.05125 16.5 4.5625 C13.00531349 2.37832093 10.09033064 2.34086089 6 2 C6 4.97 6 7.94 6 11 C9.46941546 10.54177532 12.67395049 10.10868317 16 9 C16 10.98 16 12.96 16 15 C12.7 14.34 9.4 13.68 6 13 C6.33 16.3 6.66 19.6 7 23 C12.10603642 23.19832203 12.10603642 23.19832203 17 22 C17.33 21.01 17.66 20.02 18 19 C18.33 19 18.66 19 19 19 C19 20.98 19 22.96 19 25 C12.73 25 6.46 25 0 25 C0.33 24.34 0.66 23.68 1 23 C1.09539873 21.51411977 1.13073484 20.02409435 1.1328125 18.53515625 C1.13410156 17.65279297 1.13539063 16.77042969 1.13671875 15.86132812 C1.13285156 14.93771484 1.12898437 14.01410156 1.125 13.0625 C1.12886719 12.14275391 1.13273438 11.22300781 1.13671875 10.27539062 C1.13542969 9.39173828 1.13414062 8.50808594 1.1328125 7.59765625 C1.13168457 6.78820557 1.13055664 5.97875488 1.12939453 5.14477539 C1.08150607 2.81364562 1.08150607 2.81364562 0 0 Z " fill="#DBB12B" transform="translate(917,326)"/>
<path d="M0 0 C2.31 0 4.62 0 7 0 C6.98428955 0.59014893 6.9685791 1.18029785 6.95239258 1.78833008 C6.89002061 4.46295586 6.85100343 7.13742864 6.8125 9.8125 C6.78736328 10.74126953 6.76222656 11.67003906 6.73632812 12.62695312 C6.72666016 13.51962891 6.71699219 14.41230469 6.70703125 15.33203125 C6.6913208 16.15421143 6.67561035 16.9763916 6.65942383 17.82348633 C6.84335752 20.06678421 6.84335752 20.06678421 8.29174805 21.8034668 C10.14837161 23.3650328 10.14837161 23.3650328 13.625 22.8125 C14.73875 22.544375 15.8525 22.27625 17 22 C18.63305288 18.73389423 18.14276152 15.14736773 18.125 11.5625 C18.12886719 10.78583984 18.13273437 10.00917969 18.13671875 9.20898438 C18.13099989 5.88918828 18.05668831 3.17006494 17 0 C18.65 0 20.3 0 22 0 C21.94791754 3.23045973 21.85279846 6.45828759 21.75 9.6875 C21.72873047 11.05551758 21.72873047 11.05551758 21.70703125 12.45117188 C21.54991336 16.77191384 21.40527046 19.35008457 19.078125 23.08203125 C15.92618346 25.99106001 15.92618346 25.99106001 12.9765625 26.01953125 C6.5900133 25.45726031 6.5900133 25.45726031 3.5 23.0625 C1.33088286 20.07996393 0.85322597 18.28341369 0.68359375 14.6484375 C0.62075195 13.37226563 0.62075195 13.37226563 0.55664062 12.0703125 C0.51732422 11.18085938 0.47800781 10.29140625 0.4375 9.375 C0.39431641 8.4778125 0.35113281 7.580625 0.30664062 6.65625 C0.20043139 4.43765717 0.09838806 2.2189512 0 0 Z " fill="#DCB22B" transform="translate(1142,326)"/>
<path d="M0 0 C2.64 0 5.28 0 8 0 C7.67 0.99 7.34 1.98 7 3 C6.8780605 5.49267028 6.81488963 7.94511802 6.8125 10.4375 C6.79832031 11.75621094 6.78414062 13.07492187 6.76953125 14.43359375 C7.01174083 18.55991271 7.01174083 18.55991271 9 22 C12.56206661 22.81870185 12.56206661 22.81870185 16 23 C18.63746863 20.42483378 19.21887499 18.45668604 19.29296875 14.890625 C19.27313353 13.34347769 19.2375101 11.79646604 19.1875 10.25 C19.17396484 9.45722656 19.16042969 8.66445313 19.14648438 7.84765625 C19.11125223 5.89814436 19.05744821 3.94898374 19 2 C18.34 2 17.68 2 17 2 C17 1.34 17 0.68 17 0 C18.98 0 20.96 0 23 0 C22.88496731 2.5216376 22.75825223 5.0418119 22.625 7.5625 C22.57859375 8.61920898 22.57859375 8.61920898 22.53125 9.69726562 C21.89735848 21.16013723 21.89735848 21.16013723 17.9375 25 C13.87844711 26.38180524 10.05518751 26.50890698 6 25 C2.90677528 22.198793 1.7741132 19.96739877 1.42578125 15.8984375 C1.36912872 14.39121659 1.33180241 12.88316173 1.3125 11.375 C1.23189421 5.60561254 1.23189421 5.60561254 0 0 Z " fill="#DBB12B" transform="translate(1241,326)"/>
<path d="M0 0 C3 1 3 1 4.25854492 3.31665039 C4.66177979 4.31688232 5.06501465 5.31711426 5.48046875 6.34765625 C5.92197266 7.42724609 6.36347656 8.50683594 6.81835938 9.61914062 C7.27017578 10.75544922 7.72199219 11.89175781 8.1875 13.0625 C8.88262695 14.77276367 8.88262695 14.77276367 9.59179688 16.51757812 C10.7377908 19.34121263 11.87332398 22.16861419 13 25 C10.69 25 8.38 25 6 25 C5.34 22.03 4.68 19.06 4 16 C1.03 16 -1.94 16 -5 16 C-5.33 18.97 -5.66 21.94 -6 25 C-7.65 25 -9.3 25 -11 25 C-10.76289307 24.45061768 -10.52578613 23.90123535 -10.28149414 23.33520508 C-9.203502 20.82975166 -8.13294598 18.32118622 -7.0625 15.8125 C-6.50272461 14.51602539 -6.50272461 14.51602539 -5.93164062 13.19335938 C-5.39506836 11.93168945 -5.39506836 11.93168945 -4.84765625 10.64453125 C-4.51773682 9.87471924 -4.18781738 9.10490723 -3.84790039 8.31176758 C-2.91356709 5.97024356 -2.91356709 5.97024356 -2.50952148 3.2722168 C-2.34137939 2.52238525 -2.1732373 1.77255371 -2 1 C-1.34 0.67 -0.68 0.34 0 0 Z M-1 6 C-1.99 8.97 -2.98 11.94 -4 15 C-1.69 15 0.62 15 3 15 C2.01 12.03 1.02 9.06 0 6 C-0.33 6 -0.66 6 -1 6 Z " fill="#DCB22B" transform="translate(593,326)"/>
<path d="M0 0 C2.31 0 4.62 0 7 0 C7.71614583 1.72526042 8.43229167 3.45052083 9.1484375 5.17578125 C10.06806692 7.26533932 10.06806692 7.26533932 12 10 C12.67154933 8.71086513 13.33708859 7.41859796 14 6.125 C14.37125 5.40570313 14.7425 4.68640625 15.125 3.9453125 C16.13673746 2.05151023 16.13673746 2.05151023 16 0 C17.65 0 19.3 0 21 0 C20.00811694 2.07646547 18.98697273 4.01958038 17.7109375 5.9375 C13.60942355 12.26966188 13.43560843 17.58765739 14 25 C11.36 25 8.72 25 6 25 C6.33 24.34 6.66 23.68 7 23 C7.81196639 15.69230246 6.18137045 11.64142329 2.41015625 5.3828125 C1 3 1 3 0 0 Z " fill="#DDB22B" transform="translate(1341,326)"/>
<path d="M0 0 C6.27 0 12.54 0 19 0 C19.33 1.65 19.66 3.3 20 5 C19.4225 4.690625 18.845 4.38125 18.25 4.0625 C16.15095893 3.07128616 14.24925862 2.52451199 12 2 C12.13850705 5.45866792 12.28704727 8.91683275 12.4375 12.375 C12.47681641 13.35984375 12.51613281 14.3446875 12.55664062 15.359375 C12.61948242 16.77089844 12.61948242 16.77089844 12.68359375 18.2109375 C12.72025146 19.08024902 12.75690918 19.94956055 12.79467773 20.84521484 C12.87401544 23.0483262 12.87401544 23.0483262 14 25 C11.36 25 8.72 25 6 25 C6.33 17.41 6.66 9.82 7 2 C4.525 3.485 4.525 3.485 2 5 C1.34 5 0.68 5 0 5 C0 3.35 0 1.7 0 0 Z " fill="#DCB22B" transform="translate(965,326)"/>
<path d="M0 0 C6.27 0 12.54 0 19 0 C19 1.65 19 3.3 19 5 C18.34 5 17.68 5 17 5 C16.67 4.34 16.34 3.68 16 3 C14.68 2.67 13.36 2.34 12 2 C12.33 9.59 12.66 17.18 13 25 C10.69 25 8.38 25 6 25 C6.33 17.41 6.66 9.82 7 2 C5.68 2.33 4.36 2.66 3 3 C2.67 3.66 2.34 4.32 2 5 C1.34 5 0.68 5 0 5 C0 3.35 0 1.7 0 0 Z " fill="#DBB02C" transform="translate(536,326)"/>
<path d="M0 0 C6.6 0 13.2 0 20 0 C20 1.65 20 3.3 20 5 C19.4225 4.690625 18.845 4.38125 18.25 4.0625 C16.15095893 3.07128616 14.24925862 2.52451199 12 2 C12.13888506 5.27116732 12.28730492 8.541834 12.4375 11.8125 C12.47681641 12.74126953 12.51613281 13.67003906 12.55664062 14.62695312 C12.61948242 15.9659668 12.61948242 15.9659668 12.68359375 17.33203125 C12.72025146 18.15421143 12.75690918 18.9763916 12.79467773 19.82348633 C12.93427772 22.17905178 12.93427772 22.17905178 14 25 C11.36 25 8.72 25 6 25 C6.33 24.34 6.66 23.68 7 23 C7.15175549 21.40737934 7.24900325 19.80935144 7.31640625 18.2109375 C7.35830078 17.26992188 7.40019531 16.32890625 7.44335938 15.359375 C7.48267578 14.37453125 7.52199219 13.3896875 7.5625 12.375 C7.60568359 11.38242187 7.64886719 10.38984375 7.69335938 9.3671875 C7.79961069 6.91160162 7.90164964 4.45591297 8 2 C6.8553125 2.4640625 6.8553125 2.4640625 5.6875 2.9375 C3.81210323 3.67893593 1.91315348 4.36228217 0 5 C0 3.35 0 1.7 0 0 Z " fill="#DBB12C" transform="translate(680,326)"/>
<path d="M0 0 C2.64 0 5.28 0 8 0 C7.67 0.99 7.34 1.98 7 3 C6.91893314 4.55421729 6.89243102 6.11167027 6.90234375 7.66796875 C6.90556641 8.56064453 6.90878906 9.45332031 6.91210938 10.37304688 C6.92048828 11.30181641 6.92886719 12.23058594 6.9375 13.1875 C6.94201172 14.12787109 6.94652344 15.06824219 6.95117188 16.03710938 C6.96295374 18.35813712 6.97940442 20.67903644 7 23 C11.22350004 23.37644194 11.22350004 23.37644194 14.75 21.5 C15.1625 21.005 15.575 20.51 16 20 C16.66 20 17.32 20 18 20 C18 21.65 18 23.3 18 25 C12.06 25 6.12 25 0 25 C0.33 23.68 0.66 22.36 1 21 C1.09516919 18.15612055 1.13947982 15.34287159 1.125 12.5 C1.12886719 11.74074219 1.13273437 10.98148437 1.13671875 10.19921875 C1.13046768 6.62985544 0.96340936 3.43268398 0 0 Z " fill="#DBB12B" transform="translate(1095,326)"/>
</svg>
