<?xml version="1.0" encoding="UTF-8"?>
<svg version="1.1" xmlns="http://www.w3.org/2000/svg" width="250" height="250">
<path d="M0 0 C7.5019028 3.1403314 10.99066856 9.9722719 14.42578125 16.96484375 C23.34193469 39.29663365 14.89991043 61.27559053 6.00390625 82.0625 C5.56949219 83.073125 5.13507813 84.08375 4.6875 85.125 C5.90324224 86.76006773 7.13569513 88.3827186 8.375 90 C9.40173828 91.35738281 9.40173828 91.35738281 10.44921875 92.7421875 C12.84677681 95.2945617 14.25082499 96.45156135 17.6875 97.125 C20.02489785 96.04069636 20.02489785 96.04069636 22.1875 94.125 C36.17886081 83.57958265 55.12370933 78.22359881 72.6875 80.125 C73.6775 80.785 74.6675 81.445 75.6875 82.125 C75.48509407 90.0188314 69.40130276 95.68839338 64 100.875 C55.74833555 107.7807619 43.77704422 111.59886913 33.05859375 111.39453125 C29.52961307 110.99337859 26.29483519 109.94494268 22.94921875 108.78125 C20.43974092 107.93922523 20.43974092 107.93922523 16.6875 108.125 C10.17182135 114.8287601 5.89484509 123.85493731 1.6875 132.125 C-0.5703125 132.06640625 -0.5703125 132.06640625 -3.3125 131.125 C-4.8374923 128.75378648 -6.01577428 126.5975068 -7.1875 124.0625 C-10.19407306 117.96768495 -13.41156318 112.91872882 -18.3125 108.125 C-18.90417969 108.25777344 -19.49585938 108.39054687 -20.10546875 108.52734375 C-21.73889853 108.89240065 -23.37304893 109.25424439 -25.0078125 109.61328125 C-26.63425835 109.97440736 -28.256394 110.35521805 -29.875 110.75 C-40.46614439 112.37940683 -51.92992723 109.84287051 -60.8125 103.8125 C-75.47055941 92.417198 -75.47055941 92.417198 -76.75 84.375 C-76.605625 83.6325 -76.46125 82.89 -76.3125 82.125 C-68.88591147 77.17394098 -56.56736195 80.60844916 -48.3125 82.125 C-38.79686764 84.5096404 -29.23083219 88.42565893 -21.875 95.0625 C-19.59145668 97.30776431 -19.59145668 97.30776431 -17.25 97.25 C-13.29874672 94.9557239 -10.53256696 91.42568182 -7.65234375 87.94921875 C-6.88019531 87.01722656 -6.10804687 86.08523437 -5.3125 85.125 C-5.56418945 84.61751221 -5.81587891 84.11002441 -6.07519531 83.5871582 C-15.57839902 64.30854628 -24.30728029 43.2858119 -17.29296875 21.6171875 C-8.97935422 0.4853705 -8.97935422 0.4853705 0 0 Z M-1.3125 8.125 C-10.89515949 19.560307 -13.48187794 31.45224661 -12.3125 46.125 C-10.73868358 57.49325471 -6.18450291 67.83357812 -1.3125 78.125 C2.32922875 74.97093255 4.06552531 71.61023327 5.75 67.1875 C6.13406006 66.19169922 6.13406006 66.19169922 6.52587891 65.17578125 C11.94477893 50.71618296 14.70031346 34.87762783 8.6875 20.125 C5.18326996 12.67076898 5.18326996 12.67076898 -1.3125 8.125 Z M-67.3125 87.125 C-63.80468779 94.84218686 -55.87551981 99.24796074 -48.35546875 102.3984375 C-40.75820064 105.100334 -31.76074115 105.4353294 -24.3125 102.125 C-31.41656073 94.18311393 -43.11811416 90.2666777 -53.3125 88.125 C-54.8903125 87.7846875 -54.8903125 87.7846875 -56.5 87.4375 C-60.13143225 87.03400753 -63.65923192 87.06201262 -67.3125 87.125 Z M23.6875 102.125 C31.26381485 105.49225105 39.69378722 105.08482763 47.4375 102.5 C55.6120673 99.14783931 61.29813337 94.02502243 66.6875 87.125 C52.21694949 86.23904793 33.65491563 90.84541826 23.6875 102.125 Z M-1.3125 91.125 C-2.86522936 92.7211826 -4.3566927 94.37745031 -5.8125 96.0625 C-10.11150744 101.02450372 -10.11150744 101.02450372 -12.3125 102.125 C-10.94577857 106.49850859 -8.54280742 109.62475105 -5.76953125 113.1875 C-4.3125 115.125 -4.3125 115.125 -2.5625 118.125 C-1.94375 119.115 -1.94375 119.115 -1.3125 120.125 C-0.6525 120.125 0.0075 120.125 0.6875 120.125 C1.88292478 118.44374988 2.99462843 116.70251917 4.0625 114.9375 C5.89370914 111.92447527 7.68758018 109.12490139 9.9140625 106.38671875 C11.89318031 104.34170636 11.89318031 104.34170636 11.6875 102.125 C9.99944368 100.45622279 9.99944368 100.45622279 7.875 98.75 C5.62499143 96.88933718 3.78399715 95.25627297 2.05078125 92.8984375 C1.60089844 92.31320313 1.15101562 91.72796875 0.6875 91.125 C0.0275 91.125 -0.6325 91.125 -1.3125 91.125 Z " fill="#DBB12D" transform="translate(125.3125,89.875)"/>
<path d="M0 0 C3.38403923 6.76807847 0.4065832 15.77938844 -1.6640625 22.52734375 C-3.72531685 27.88539965 -6.60902212 32.39353462 -10 37 C-10.763125 38.051875 -11.52625 39.10375 -12.3125 40.1875 C-22.07386362 50.40288053 -34.55596575 58.58276958 -49 59.109375 C-51.67088852 59.12300198 -54.33080416 59.08980472 -57 59 C-60.99776057 50.06382931 -57.87485021 41.17510613 -54.57421875 32.46484375 C-48.70323927 19.54286162 -38.38080247 10.50810456 -26 4 C-25.24332031 3.58492188 -24.48664063 3.16984375 -23.70703125 2.7421875 C-16.0417448 -0.92995978 -8.29278972 -0.37039756 0 0 Z M-37.640625 20.54296875 C-46.40070055 29.6656302 -52.24525032 40.24698326 -52 53 C-35.84834956 51.33901467 -24.59762848 43.97741384 -14.1875 31.75 C-8.63616109 24.23859119 -5.08012178 15.38275782 -6 6 C-18.57042589 6 -28.76360786 12.23110332 -37.640625 20.54296875 Z " fill="#DBB12D" transform="translate(204,110)"/>
<path d="M0 0 C12.99938801 0.28779348 23.08776601 7.36168345 32.32592773 15.95532227 C33.08905273 16.78032227 33.85217773 17.60532227 34.63842773 18.45532227 C35.10764648 18.93098633 35.57686523 19.40665039 36.06030273 19.89672852 C43.14321963 27.4725288 48.26177289 38.11660721 49.38842773 48.45532227 C49.53538086 49.66188477 49.53538086 49.66188477 49.68530273 50.89282227 C49.62775058 54.03900666 48.74495871 56.52727108 47.63842773 59.45532227 C32.07188084 60.35918628 20.05468323 55.73695524 8.07592773 45.89282227 C-1.71753065 36.81129969 -9.90681822 23.99491613 -10.49438477 10.37719727 C-10.49180664 9.33047852 -10.48922852 8.28375977 -10.48657227 7.20532227 C-10.48915039 6.14829102 -10.49172852 5.09125977 -10.49438477 4.00219727 C-10.20689251 -1.51088947 -4.35767852 0.03572269 0 0 Z M-3.36157227 6.45532227 C-4.28145048 15.83808009 -0.72541117 24.69391346 4.82592773 32.20532227 C13.91806813 42.88466821 24.59142632 50.94692916 38.63842773 53.45532227 C39.95842773 53.45532227 41.27842773 53.45532227 42.63842773 53.45532227 C42.17103578 41.16291394 38.73233979 32.68874989 30.63842773 23.45532227 C30.08799805 22.77598633 29.53756836 22.09665039 28.97045898 21.39672852 C22.08800754 13.6026941 11.05190643 7.50853735 0.63842773 6.45532227 C-0.68157227 6.45532227 -2.00157227 6.45532227 -3.36157227 6.45532227 Z " fill="#DBB12D" transform="translate(55.361572265625,109.544677734375)"/>
<path d="M0 0 C9.62394086 2.53965106 17.4491602 7.60641206 23 16 C29.44418905 28.20924812 32.63395613 40.20564506 28.5 53.875 C28.02003512 55.25712109 27.52816595 56.63557128 27 58 C23.01023503 59.19692949 20.60955745 59.10323769 16.9375 57.3125 C5.84975315 51.10588649 -0.18794584 41.03444047 -4.3125 29.25 C-6.35640611 19.44718817 -5.80265178 9.85308098 -1 1 C-0.67 0.67 -0.34 0.34 0 0 Z M3 8 C0.22901797 16.3129461 1.31235489 26.53189925 4.66796875 34.5 C8.18426441 41.09949918 12.88548937 46.69204933 19 51 C19.99 51 20.98 51 22 51 C24.76152686 45.47694627 23.68095006 35.95337768 22.31640625 30.03515625 C21.37254282 27.55604607 20.29916504 25.31186822 19 23 C18.56429687 22.20980469 18.12859375 21.41960937 17.6796875 20.60546875 C14.39923135 15.20078281 10.51259756 11.16601887 5 8 C4.34 8 3.68 8 3 8 Z " fill="#DBB12D" transform="translate(73,54)"/>
<path d="M0 0 C5.25809324 9.93195389 4.91563937 20.3023904 2.05078125 30.93359375 C-2.1445667 43.17652365 -8.92846116 50.97705535 -20.109375 57.16796875 C-22.49313711 58.21702108 -24.4248351 58.14306472 -27 58 C-32.21827067 48.24410265 -32.3907671 37.82533696 -29.3125 27.25 C-24.92087327 14.53417487 -18.50574977 5.79984025 -6.296875 -0.28515625 C-3.67542284 -1.10101636 -2.49301977 -1.13074331 0 0 Z M-14 13 C-20.77388761 20.56440166 -25.04208158 30.19536281 -25.375 40.4375 C-25.01016085 43.90347189 -24.29174311 46.77064222 -23 50 C-16.30499779 48.82837461 -12.78085851 44.274531 -9 39 C-4.92714323 31.55650314 -2.85717313 25.414177 -2.875 16.9375 C-2.87242187 15.70902344 -2.86984375 14.48054688 -2.8671875 13.21484375 C-2.85217325 9.98214792 -2.85217325 9.98214792 -4 7 C-8.02515928 7 -11.14069488 10.4199037 -14 13 Z " fill="#DBB12D" transform="translate(178,55)"/>
<path d="M0 0 C6.24010541 3.19615155 9.4955021 10.26598267 11.8046875 16.62109375 C14.68615605 26.85476299 14.07601597 37.49156816 9.1640625 47.02734375 C6.76295994 50.78744598 4.481668 54.03685406 0.5625 56.3125 C-1.92295758 56.1571589 -3.07928924 55.6053373 -5 54.03515625 C-12.2541346 45.65741928 -14.77585274 36.33499114 -14.4375 25.3125 C-13.26132931 17.37816821 -9.79838275 1.25620292 0 0 Z M-1.4375 9.3125 C-6.21795477 14.09295477 -7.61856503 21.23009085 -7.8125 27.75 C-7.6002126 34.95766271 -5.89863684 42.49362587 -1.4375 48.3125 C-0.7775 48.3125 -0.1175 48.3125 0.5625 48.3125 C1.38002303 46.73175436 2.19131997 45.14778777 3 43.5625 C3.45246094 42.68078125 3.90492188 41.7990625 4.37109375 40.890625 C7.60380119 33.89525809 7.88933821 25.12972545 5.25 17.875 C3.16500652 13.44138245 3.16500652 13.44138245 0.5625 9.3125 C-0.0975 9.3125 -0.7575 9.3125 -1.4375 9.3125 Z " fill="#DBB12D" transform="translate(125.4375,27.6875)"/>
</svg>
