<?xml version="1.0" encoding="UTF-8"?>
<svg version="1.1" xmlns="http://www.w3.org/2000/svg" width="500" height="500">
<path d="M0 0 C165 0 330 0 500 0 C500 165 500 330 500 500 C335 500 170 500 0 500 C0 335 0 170 0 0 Z " fill="#00321A" transform="translate(0,0)"/>
<path d="M0 0 C11.3133403 4.37761416 18.17424458 18.00132817 23.265625 28.32421875 C34.69423106 55.66557144 29.81575082 85.23474587 19.21337891 112.08935547 C16.79205273 117.91813804 14.23360006 123.68162602 11.60791016 129.42089844 C9.85898497 133.25004627 8.15640698 137.09960116 6.453125 140.94921875 C9.74764374 145.52894599 13.1948438 149.93388223 16.890625 154.19921875 C17.59058594 155.00875 18.29054688 155.81828125 19.01171875 156.65234375 C21.95705615 159.42331717 24.88553746 161.05922097 28.453125 162.94921875 C29.14792969 162.35496094 29.84273437 161.76070312 30.55859375 161.1484375 C53.20956749 142.6888987 80.37858291 133.50721188 109.515625 133.69921875 C110.72412109 133.69148437 111.93261719 133.68375 113.17773438 133.67578125 C114.33208984 133.67835938 115.48644531 133.6809375 116.67578125 133.68359375 C117.71484619 133.68584961 118.75391113 133.68810547 119.82446289 133.69042969 C122.453125 133.94921875 122.453125 133.94921875 125.453125 135.94921875 C124.93552018 148.11293205 114.13922694 157.68474369 105.765625 165.57421875 C91.89247373 177.26414502 74.31505044 183.51462741 56.26171875 183.27734375 C48.65728958 182.62219293 40.73630557 180.83505077 33.73828125 177.75390625 C31.54494228 176.84175119 31.54494228 176.84175119 29.46875 176.9375 C26.23815155 178.55906007 24.3457101 181.3171128 22.203125 184.13671875 C21.72149902 184.76167236 21.23987305 185.38662598 20.74365234 186.03051758 C14.60405028 194.17349361 9.68743673 202.80884762 5.828125 212.26171875 C3.86336809 216.76871179 3.86336809 216.76871179 0.328125 218.32421875 C-3.07166663 217.88076767 -3.45711989 217.56668979 -5.546875 214.94921875 C-6.81184912 212.50512848 -8.00635564 210.06437771 -9.171875 207.57421875 C-14.24609961 197.11159442 -21.07646807 183.91728239 -30.546875 176.94921875 C-32.99277051 177.00576296 -32.99277051 177.00576296 -35.546875 177.94921875 C-36.51625 178.25859375 -37.485625 178.56796875 -38.484375 178.88671875 C-39.495 179.23734375 -40.505625 179.58796875 -41.546875 179.94921875 C-58.85515879 185.95413353 -77.25962533 182.83588455 -93.546875 174.94921875 C-106.66557914 167.34349385 -119.92358833 155.85812075 -126.546875 141.94921875 C-126.9375 138.72265625 -126.9375 138.72265625 -126.546875 135.94921875 C-123.1097415 133.65779642 -121.77624906 133.68171322 -117.7265625 133.6484375 C-116.55988037 133.6388501 -115.39319824 133.6292627 -114.19116211 133.61938477 C-82.90812623 133.76324742 -54.24151113 141.34221576 -30.546875 162.94921875 C-21.39473301 159.82806198 -14.92538982 151.51266233 -8.75 144.40625 C-7.2516348 141.96805153 -7.2516348 141.96805153 -8.08203125 139.1328125 C-9.8062973 135.38540761 -11.72662577 131.80039308 -13.734375 128.19921875 C-25.09200685 107.27339157 -30.89743041 85.88185683 -30.921875 62.01171875 C-30.94636719 60.75681641 -30.97085938 59.50191406 -30.99609375 58.20898438 C-31.03269579 46.38042478 -28.39396019 35.42320297 -22.984375 24.88671875 C-22.65139404 24.22897461 -22.31841309 23.57123047 -21.9753418 22.89355469 C-18.22971059 15.84555218 -8.71708121 -0.17380683 0 0 Z " fill="#DCB48D" transform="translate(250.546875,192.05078125)"/>
<path d="M0 0 C0.80630859 -0.020625 1.61261719 -0.04125 2.44335938 -0.0625 C3.60641602 -0.07023438 3.60641602 -0.07023438 4.79296875 -0.078125 C5.84327271 -0.09214355 5.84327271 -0.09214355 6.91479492 -0.10644531 C9.41585902 0.36332872 10.28948482 1.2418308 11.8125 3.25 C14.12240674 23.29402945 7.34907072 43.58213611 -5 59.3125 C-6.38539369 60.96713058 -7.78136053 62.61296309 -9.1875 64.25 C-9.86554688 65.07371094 -10.54359375 65.89742188 -11.2421875 66.74609375 C-24.80762863 82.67182226 -44.26137182 94.52272142 -65.1875 97.25 C-68.27204239 97.43090223 -71.34816487 97.48006881 -74.4375 97.5 C-75.2521875 97.520625 -76.066875 97.54125 -76.90625 97.5625 C-79.265625 97.578125 -79.265625 97.578125 -83.1875 97.25 C-85.61360033 93.6108495 -85.49326382 90.89354708 -85.4375 86.6875 C-85.43145752 85.96804199 -85.42541504 85.24858398 -85.41918945 84.50732422 C-85.31526751 78.89553907 -84.66074263 73.6767545 -83.1875 68.25 C-83.00445312 67.47914063 -82.82140625 66.70828125 -82.6328125 65.9140625 C-76.2893114 41.71478051 -58.16880449 22.82020603 -37.1875 10.25 C-25.26415916 3.67291098 -13.57995358 0.08811 0 0 Z " fill="#02331B" transform="translate(370.1875,224.75)"/>
<path d="M0 0 C0.76489746 0.01015137 1.52979492 0.02030273 2.31787109 0.03076172 C25.6845214 0.66335309 45.70912475 13.60660656 62.0625 29.375 C65.00504633 32.5457244 67.58490705 35.8323784 70.0625 39.375 C70.94808594 40.59703125 70.94808594 40.59703125 71.8515625 41.84375 C80.41895143 54.37402809 86.43061482 69.40878626 86.375 84.625 C86.39111328 85.5221875 86.40722656 86.419375 86.42382812 87.34375 C86.42447266 88.20484375 86.42511719 89.0659375 86.42578125 89.953125 C86.42876221 90.73075195 86.43174316 91.50837891 86.43481445 92.30957031 C85.96123465 94.93677368 85.20052001 95.80803626 83.0625 97.375 C80.23586182 97.70913934 77.70058997 97.850568 74.875 97.8125 C74.07199463 97.80275146 73.26898926 97.79300293 72.44165039 97.78295898 C53.87674826 97.24397206 36.99242196 89.56010627 23.0625 77.375 C22.07443359 76.58222656 22.07443359 76.58222656 21.06640625 75.7734375 C7.21805333 64.38161502 -1.99898965 49.05578385 -7.9375 32.375 C-8.30101563 31.38242187 -8.66453125 30.38984375 -9.0390625 29.3671875 C-10.84291661 23.35956902 -11.14104767 17.34961181 -11.1875 11.125 C-11.208125 10.41859375 -11.22875 9.7121875 -11.25 8.984375 C-11.27118443 6.1880296 -11.2228033 3.92374428 -9.91796875 1.4140625 C-6.73970657 -0.25342811 -3.50091026 -0.06640052 0 0 Z " fill="#02331B" transform="translate(128.9375,224.625)"/>
<path d="M0 0 C12.07880986 1.15970848 23.18072739 9.16711797 31 18 C43.95596158 34.71278429 51.33657328 54.73668496 49 76 C48.11922495 80.80339023 46.66228948 85.41353706 45 90 C44.66742188 90.93328125 44.33484375 91.8665625 43.9921875 92.828125 C43 95 43 95 41 96 C33.45751662 97.31173624 28.02392646 93.16981882 22 89 C6.71377427 77.07894338 -2.58468759 61.8006851 -7 43 C-7.19464844 42.19820312 -7.38929688 41.39640625 -7.58984375 40.5703125 C-9.76879038 26.91558031 -8.04776489 12.93454263 -1 1 C-0.67 0.67 -0.34 0.34 0 0 Z " fill="#DAB38C" transform="translate(164,133)"/>
<path d="M0 0 C7.94275261 9.41416181 9.22146615 23.90099723 8.26611328 35.79101562 C6.18980948 53.02624207 -1.98403096 72.97705502 -15.52197266 84.26953125 C-22.47048933 89.67277142 -30.07246901 94.8144938 -38.8125 96.5625 C-42.15527345 95.70292969 -43.16832784 93.84224991 -45 91 C-51.05281061 78.89437878 -50.15001273 58.18316768 -46.15722656 45.6640625 C-44.92418127 42.35131161 -43.5242833 39.19223468 -42 36 C-41.53207031 34.98035156 -41.06414062 33.96070313 -40.58203125 32.91015625 C-34.53998692 20.84299209 -16.0768657 -3.5668087 0 0 Z " fill="#DBB48C" transform="translate(336,133)"/>
<path d="M0 0 C13.26499161 12.46105272 20.5103005 28.43023106 21.23828125 46.64453125 C21.49649692 58.66086474 20.34605658 69.46187387 17 81 C16.79101074 81.73283203 16.58202148 82.46566406 16.36669922 83.22070312 C12.80963901 95.40263516 7.6559385 106.6629855 2 118 C0.68 118 -0.64 118 -2 118 C-8.97423191 103.63887324 -15.58023832 89.68815669 -19 74 C-19.309375 72.76636719 -19.309375 72.76636719 -19.625 71.5078125 C-23.74866397 53.12314398 -21.87247399 31.23317363 -12.17578125 14.93359375 C-8.5831482 9.35645863 -4.93369214 4.44032292 0 0 Z " fill="#02331B" transform="translate(250,203)"/>
<path d="M0 0 C7.90184042 2.06952963 11.94512607 9.645926 15.828125 16.23046875 C22.99524144 30.01937755 25.35981865 47.0096209 21.13989258 62.10595703 C17.67853017 73.02753929 12.99206395 83.5958362 3.625 90.6875 C1.625 91.578125 1.625 91.578125 -0.375 91.6875 C-10.91769644 85.58383364 -15.72506766 73.65107034 -19.375 62.6875 C-19.62378906 61.95015625 -19.87257812 61.2128125 -20.12890625 60.453125 C-24.47545143 44.76908783 -20.74439734 28.72049325 -13.375 14.6875 C-5.70278407 1.65080592 -5.70278407 1.65080592 0 0 Z " fill="#DAB38C" transform="translate(249.375,89.3125)"/>
<path d="M0 0 C0.80630859 -0.020625 1.61261719 -0.04125 2.44335938 -0.0625 C3.60641602 -0.07023438 3.60641602 -0.07023438 4.79296875 -0.078125 C5.84327271 -0.09214355 5.84327271 -0.09214355 6.91479492 -0.10644531 C9.41585902 0.36332872 10.28948482 1.2418308 11.8125 3.25 C14.12240674 23.29402945 7.34907072 43.58213611 -5 59.3125 C-6.38539369 60.96713058 -7.78136053 62.61296309 -9.1875 64.25 C-9.86554688 65.07371094 -10.54359375 65.89742188 -11.2421875 66.74609375 C-24.80762863 82.67182226 -44.26137182 94.52272142 -65.1875 97.25 C-68.27204239 97.43090223 -71.34816487 97.48006881 -74.4375 97.5 C-75.2521875 97.520625 -76.066875 97.54125 -76.90625 97.5625 C-79.265625 97.578125 -79.265625 97.578125 -83.1875 97.25 C-85.61360033 93.6108495 -85.49326382 90.89354708 -85.4375 86.6875 C-85.43145752 85.96804199 -85.42541504 85.24858398 -85.41918945 84.50732422 C-85.31526751 78.89553907 -84.66074263 73.6767545 -83.1875 68.25 C-83.00445312 67.47914063 -82.82140625 66.70828125 -82.6328125 65.9140625 C-76.2893114 41.71478051 -58.16880449 22.82020603 -37.1875 10.25 C-25.26415916 3.67291098 -13.57995358 0.08811 0 0 Z M-58.953125 41.3828125 C-69.71450208 55.19199218 -76.85311683 70.53719658 -76.1875 88.25 C-54.3392516 87.59488011 -35.47797806 78.82262673 -20.1875 63.25 C-9.14900506 51.35251982 -2.34939412 37.95779394 1.8125 22.25 C2.00972656 21.56679687 2.20695312 20.88359375 2.41015625 20.1796875 C2.88355054 17.90923333 2.90907491 15.81709418 2.875 13.5 C2.86597656 12.70078125 2.85695313 11.9015625 2.84765625 11.078125 C2.83605469 10.47484375 2.82445312 9.8715625 2.8125 9.25 C-22.01144594 7.78976789 -43.35719487 23.62999841 -58.953125 41.3828125 Z " fill="#DCB48D" transform="translate(370.1875,224.75)"/>
<path d="M0 0 C0.76489746 0.01015137 1.52979492 0.02030273 2.31787109 0.03076172 C25.6845214 0.66335309 45.70912475 13.60660656 62.0625 29.375 C65.00504633 32.5457244 67.58490705 35.8323784 70.0625 39.375 C70.94808594 40.59703125 70.94808594 40.59703125 71.8515625 41.84375 C80.41895143 54.37402809 86.43061482 69.40878626 86.375 84.625 C86.39111328 85.5221875 86.40722656 86.419375 86.42382812 87.34375 C86.42447266 88.20484375 86.42511719 89.0659375 86.42578125 89.953125 C86.42876221 90.73075195 86.43174316 91.50837891 86.43481445 92.30957031 C85.96123465 94.93677368 85.20052001 95.80803626 83.0625 97.375 C80.23586182 97.70913934 77.70058997 97.850568 74.875 97.8125 C74.07199463 97.80275146 73.26898926 97.79300293 72.44165039 97.78295898 C53.87674826 97.24397206 36.99242196 89.56010627 23.0625 77.375 C22.07443359 76.58222656 22.07443359 76.58222656 21.06640625 75.7734375 C7.21805333 64.38161502 -1.99898965 49.05578385 -7.9375 32.375 C-8.30101563 31.38242187 -8.66453125 30.38984375 -9.0390625 29.3671875 C-10.84291661 23.35956902 -11.14104767 17.34961181 -11.1875 11.125 C-11.208125 10.41859375 -11.22875 9.7121875 -11.25 8.984375 C-11.27118443 6.1880296 -11.2228033 3.92374428 -9.91796875 1.4140625 C-6.73970657 -0.25342811 -3.50091026 -0.06640052 0 0 Z M-1.9375 9.375 C-3.37331957 25.16901529 4.7682417 43.02760066 14.375 55.125 C15.91602428 56.89394048 17.4785272 58.64441154 19.0625 60.375 C19.81144531 61.21675781 20.56039062 62.05851562 21.33203125 62.92578125 C33.6752915 76.08783156 51.66441973 87.44667537 70.04296875 88.5546875 C72.39243378 88.56131505 74.7176593 88.51506792 77.0625 88.375 C78.72225546 69.19560362 69.45323235 52.84022102 57.75 38.4765625 C44.40766436 22.75026542 25.80989091 11.6509459 5.0625 9.375 C2.69768249 9.25531465 0.43099277 9.26973365 -1.9375 9.375 Z " fill="#DCB48D" transform="translate(128.9375,224.625)"/>
<path d="M0 0 C5.20131973 15.54179201 2.28073722 32.91228401 -4.8125 47.3125 C-10.48000684 58.28822388 -17.7172903 68.20713957 -29 74 C-30.32 74 -31.64 74 -33 74 C-39.0466513 58.7034119 -35.92596278 43.84896356 -29.625 29.1875 C-27.19816395 24.125388 -24.30905075 19.52770654 -21 15 C-20.2575 13.96875 -19.515 12.9375 -18.75 11.875 C-14.42374762 7.35209979 -6.6801798 0 0 0 Z " fill="#03331B" transform="translate(332,144)"/>
<path d="M0 0 C15.01593811 6.82817306 25.09986176 18.4514004 31 34 C33.50574159 41.953447 34.26329605 49.59018433 34.3125 57.875 C34.31805908 58.65931396 34.32361816 59.44362793 34.3293457 60.25170898 C34.26476564 65.45840791 33.43130179 69.99329494 32 75 C21.20200121 72.50815413 12.51149943 62.68836719 6.828125 53.62890625 C-0.39097355 41.62532162 -3.16641865 30.99987688 -3.25 17 C-3.270625 16.13632813 -3.29125 15.27265625 -3.3125 14.3828125 C-3.34644155 8.79942798 -2.56656809 4.97103715 0 0 Z " fill="#02331B" transform="translate(169,144)"/>
<path d="M0 0 C3.95583526 1.31861175 4.44355919 2.92828702 6.5 6.5 C7.0878125 7.5003125 7.675625 8.500625 8.28125 9.53125 C12.29485849 17.63144167 13.55600299 24.65235159 13.5 33.6875 C13.49500488 34.74388672 13.49000977 35.80027344 13.48486328 36.88867188 C13.21766481 48.91076055 10.21591673 58.90884815 2 68 C-3.25243024 65.84116215 -4.68963116 61.94870801 -7 57 C-7.39832031 56.15566406 -7.79664063 55.31132812 -8.20703125 54.44140625 C-13.56443684 41.09521917 -12.53507555 25.09149268 -7 12 C-5.12488699 7.67120752 -3.03658789 3.64390547 0 0 Z " fill="#03341B" transform="translate(249,101)"/>
<path d="M0 0 C27.42041154 -0.92659714 53.85589163 5.79434778 75 24 C68.12144182 28.58570546 61.89400369 29.53252452 53.8125 29.4375 C52.41994995 29.4228772 52.41994995 29.4228772 50.99926758 29.40795898 C32.21278031 28.92541534 17.05633542 19.79381932 4.16430664 6.69775391 C0 2.30314895 0 2.30314895 0 0 Z " fill="#03341B" transform="translate(137,336)"/>
<path d="M0 0 C-9.61013945 14.93959318 -24.21400026 24.03674234 -41.2734375 28.609375 C-52.56592718 30.2272102 -64.70020538 30.2916376 -75 25 C-63.68235023 12.12129509 -45.30991738 5.5784714 -29 2 C-27.50919922 1.66162109 -27.50919922 1.66162109 -25.98828125 1.31640625 C-17.3577228 -0.39086657 -8.75455503 -0.18670852 0 0 Z " fill="#03331B" transform="translate(363,336)"/>
<path d="M0 0 C0.66 0 1.32 0 2 0 C3.4453125 1.6875 3.4453125 1.6875 5.125 4 C10.00559102 10.45661521 15.5133477 16.13501078 22 21 C21.0192367 24.48715839 19.51068112 26.62803792 17.0625 29.1875 C12.42484459 34.22630282 9.15635673 40.11042101 5.73266602 46.00463867 C5.27819092 46.77654541 4.82371582 47.54845215 4.35546875 48.34375 C3.94965576 49.04693359 3.54384277 49.75011719 3.12573242 50.47460938 C2.75424072 50.97798828 2.38274902 51.48136719 2 52 C1.34 52 0.68 52 0 52 C-1.41481518 49.79544963 -2.718866 47.59342201 -4 45.3125 C-7.5186964 39.19954146 -11.37256053 33.62354629 -15.90039062 28.21411133 C-18.45251559 25.08329508 -19 24.22991079 -19 20 C-17.19023028 18.1129659 -15.43145479 16.48042341 -13.4375 14.8125 C-8.77155438 10.75745654 -4.88214039 6.66343822 -1.3046875 1.58203125 C-0.87414062 1.05996094 -0.44359375 0.53789062 0 0 Z " fill="#02331B" transform="translate(249,341)"/>
</svg>
